<svg id="katman_1" data-name="katman 1" xmlns="http://www.w3.org/2000/svg" viewBox="0 0 847.84 451.24"><defs><style>.cls-1{fill:#8501e1;}.cls-2{fill:red;}</style></defs><path class="cls-1" d="M959.41,626.8c-11.78.33-23.6-.86-35.47,1.28.12-.78.15-1.35.29-1.89,2.06-8.28,3.82-16.78,1.62-25.1-5.56-21-17.44-37.7-35.85-49.57a4.65,4.65,0,0,1-2-2.68,9.9,9.9,0,0,0-6.46-7.89c-1.82-.75-2.14-1.46-2-3.21a89.69,89.69,0,0,0,.19-12.37c-.65-7.61-1.76-15.18-2.62-22.29,2.56.62,5.81,1.55,9.14,2.12.66.11,1.56-1.15,2.35-1.78a10,10,0,0,0-2.35-1.48c-5.65-1.54-11.33-3-17-4.45.08-1.73.13-2.82.19-4.15,7.11,2.86,14,5.21,22.1.06-2.17-.69-3.67-1.75-4.73-1.41-4.57,1.43-9,1.17-13.61.23-2-.42-4-.33-4.77-2.92-.21-.71-1.84-1-3.51-1.79a16.19,16.19,0,0,1,.6,3.24c-.14,1.87.17,4.36-.89,5.4s-3.49.46-5.32.38a26,26,0,0,1-4-.87c2.3,4.83,9.19,5.95,13.69,2.77l5.09,3.16c.43,3.67,1,7.19,1.23,10.72.4,7.93.6,15.87.84,23.81.07,2.17,0,4.35,0,7.57-1.18.58-3.17,2-5.38,2.57-7.64,1.82-15.35,3.39-23.06,4.89a9.46,9.46,0,0,0-6.86,4.6c-2.44,4.15-2.68,9.45-.12,12.35a38.54,38.54,0,0,1,1.51-4.65c1.23-2.64,2.21-5.58,4.1-7.66,2.17-2.4,5.39-1.5,6.84,1.27,3,5.75,3,5.74,9.14,5.16.46,0,.94,0,1.39-.06,7.28-1.09,14.41-2.67,20.29-7.44,1.91-1.54,3.3-1.29,5.37-.21,7.08,3.68,11.33,10.25,16.77,15.62,6.47,6.39,10,14.45,13.63,22.47a38.7,38.7,0,0,1,2.94,11.9,61.34,61.34,0,0,1-7.94,36.69c-5.44,9.64-12.28,18.48-18.29,27.35-1.93-1.53-3.86-3.56-6.21-4.79s-5.16-1.66-8.2-2.57l1.69-1.45c.45-.37.89-.73,1.34-1.08,8.59-6.78,17-13.67,22.47-23.48,5.08-9.17,6.66-18.42,2.34-28.56a169.44,169.44,0,0,0-15.62-28c-1.21-1.8-2.08-3.92-3.58-5.42-1.72-1.71-3.77-3.53-6.65-1.92-2.57,1.43-3.15,2.66-2.52,4.84l6.16-2.44v53.93c-.54,0-1.32.11-2.11.1-32.6-.3-65.2-.75-97.81-.85-18.72-.06-37.45.44-56.17.69-3,0-6,0-9,.19q-23,1.29-45.89,2.71c-2.74.17-5.47.59-8.19,1-4.25.63-8.48,1.35-12,1.91-1.54-5.37-2.71-10.08-4.27-14.66-1.08-3.18-2.35-6.07-1.78-9.69.62-4,.33-8.19-5-9.46-.65-.16-1.11-1.59-1.43-2.51-3.12-9.11-8.26-17-14.1-24.59-4.11-5.32-7.85-10.93-11.73-16.38,1.84-1.46,3.3-2.53,4.67-3.71,5.37-4.66,10.94-9.1,13.82-16,2.56-6.08.59-11.31-5.53-13.61a60.26,60.26,0,0,0-6.29-1.65c.09-.74-.05-1.49.25-1.82,2.82-3.1,1.63-5.4-1.12-7.77-.75-.64-1.3-2.7-.85-3.3a9.65,9.65,0,0,1,4-2.85c1.11-.47,2.52-.24,4.07-.34-3.41-5-3.81-9.88-2-14.85,1.27-3.38,2.9-6.64,4.36-9.95l-.85-.71a32.39,32.39,0,0,0-4,3.1c-2.32,2.41-4.64,2.63-6.21-.15a3.81,3.81,0,0,0-4.17-2.16c-2.14.14-3.16-.86-3.19-3.07,0-1.7-.36-3.4-.58-5.39-1.31.83-2.37,2-3.58,2.18-3.1.5-7.92-3.9-7.78-7.09.16-3.43.74-6.83,1-10.25a5.52,5.52,0,0,0-.65-2c-.58.43-1.48.75-1.67,1.3-1,2.91-1.75,5.87-2.51,8.54l-12.41,7.66c-1.37-7.74,4.66-10.13,10.18-13.41-4.73-2.51-4.27-5.73-2.23-8.68,1.14-1.65,3.18-3.43,5-3.69,3.28-.46,6.71.18,10.35.39,2.78-8.49,8-10.11,14.55-4.36,1.59,1.41,2.63.94,4.22,0,5.75-3.44,9.28-2,11.22,4.48,1,3.29,2.82,4,6,3.49a51.93,51.93,0,0,1,11.28-.54c2.56.17,4.15,1.85,5.12,4.71,1.44,4.26-1.46,6-4.54,9,2.19.88,3.82,1.41,5.31,2.19a18.55,18.55,0,0,1,4.88,3.22c.29.31-1.16,2.63-2.15,3.73a42.19,42.19,0,0,1-4.77,3.89c1.75.82,4,2.43,4.49,2,3.94-3.53,6.08,0,8.27,2,4.11,3.75,3,8.71-2.42,10.16-3.23.88-6.73.75-10.12,1.07.28,2.78,1.57,2.75,4.62,3.54,2.77.71,4.42,2.82,3.46,5.57-.69,2-2.25,3.61-3.18,5.51-.47,1-.91,2.47-.49,3.27,1.07,2,2.77,3.65,4,5.59,2.65,4.29,1.92,6.56-2.59,8.66-1.3.6-2.64,1.09-4.54,1.87,1.45,1.66,2.7,2.93,3.74,4.35.85,1.15,2.22,2.64,2,3.7-.54,2.54-1.87,4.92-3.08,7.85,2.13,2.64,3,2.54,6.22-1.61,2.47,4.9.38,9.47-4.83,10.15a62.89,62.89,0,0,1-7.8.05c2,4.3,5.5,3.29,9.27,3.53-.75,2.45-1,6.13-2.1,6.38-5.54,1.31-2.77,4.71-2.5,7.54a23.28,23.28,0,0,1,.15,3.12c-.12,2.87-1.52,4.38-4.54,4.47a43.38,43.38,0,0,0-5.2.77c-.54,6.78-1.94,7.8-8.56,7.11-1.48-.15-3,.53-4.56.82v1.73c3.42.38,6.92,1.41,10.23,1,4.15-.53,6-4,6.21-8.25,4.12.6,8,0,9.19-3.7,1-3.11.21-6.83.21-10.45,4.23-2.42,5-5.4,2.59-11,6.5-1.5,7.87-8.23,5.86-12.69-.58-1.31-2.13-2.21-2.64-3.53-1.18-3.08-2-6.3-3-9.63,5.18-2.82,6.43-4.8,4.76-9.32-.9-2.42-2.55-4.55-3.72-6.89-.39-.77-.78-2.1-.41-2.59,3.15-4.18,3.29-8.52,1-13.05,12.88-3.79,10.17-14.42,0-20.67,1.91-5.66-1.09-9.25-5.3-12.32,1.74-7.9-1.94-16.37-11.5-17.08-3.63-.26-7.31,0-11.28,0,0-.08-.28-.59-.54-1.09-3.71-7.11-8.61-9-16.09-6.37a3.81,3.81,0,0,1-3.23-.72c-5.84-5.56-12.14-2.5-15.26,3.26-1.09,2-2.15,2.45-4.35,1.84-4.81-1.34-10.46.8-12.24,5.21-1.18,2.91-.89,6.41-1.32,10.21-5.72,2.77-7.76,7.13-6.46,14.56a4.74,4.74,0,0,1-1.37,3.48c-5.43,5.56-11.23,10.68-15.44,17.45-5.21,8.38-11,16.39-11.81,26.62-.43,5-1.44,10.17-.88,15.12.89,8,6.21,12.93,13.56,15.84.9.35,2.21,1.67,2.07,2.26a34.33,34.33,0,0,1-2.62,8.09,14.39,14.39,0,0,1-13.49,8.39c-8.61,0-15.66,3-20.88,9.89-4,5.28-6,11.51-7.25,17.94-.86,4.35-1.46,8.74-2.29,13.79-2.19-4.8-6.28-8-5.66-13.44.18-1.56-1.35-3.31-2.09-5-.86-1.95-2.18-3.84-2.5-5.88a137.26,137.26,0,0,1-2-17.69c-.34-13.58,1.34-27,3.46-40.44.72-4.54,2.18-8.53,5.35-11.91,4.09-4.37,5.46-9.66,5-15.56a11.27,11.27,0,0,1,.43-4.71c1.74-4.56,3.76-9,5.47-13.07,2.54,0,4.71.1,6.87,0,11.59-.64,23.19-1.4,34.79-2,2.28-.11,3-1,3.07-3.13.15-5.06.52-10.12.66-15.18.29-10.61.47-21.22.76-31.83.15-5.3.31-10.6.72-15.88.8-10.06,1.86-20.09,2.68-30.15.59-7.21.72-14.47,1.51-21.66,1.46-13.3,2.1-26.56-.06-39.85-.64-3.91-2.11-5.29-6.13-5.2-5,.1-9.92.52-14.87.43-16.51-.31-33-.9-49.52-1.17-12.45-.21-24.9-.13-37.35-.1-5,0-6,1.09-6,6.15,0,25.44,0,50.89.13,76.34q.16,30.49.76,61c.12,6.09.74,12.18,1.19,18.26.21,2.78,1.51,5,4.44,5.28,2.37.24,4.81-.26,7.22-.31,3.28-.07,6.56,0,10.33,0-.38,6.35-.73,12.46-1.15,18.58-.08,1.12-.52,2.22-.67,3.35-1.67,12.62-3.38,25.24-5,37.87-1.78,14.1-2.17,28.2.6,42.26.46,2.33,1.21,4.93.61,7.07-1.38,4.92.41,8.93,2.38,13.09.84,1.79,1.83,3.72,1.92,5.62.32,7.23,2.78,13.39,8.09,18.35,1.33,1.24,2.69,2.43,4.7,4.24-3.09.27-5.11.56-7.13.6-15.36.31-30.73.32-46.08.91-15,.57-29.89,1.68-44.82,2.61-5.11.32-10.2.82-15.12,1.22-.5-9.48-1-19.62-1.6-29.76a24,24,0,0,0-.71-5.08c-1.59-5.64-2.61-11.6-5.22-16.75-3-5.85-7.41-11-11.23-16.38a27.06,27.06,0,0,0-19.73-11.65c-6-.71-11.77-2.3-14.82-7.8-2.42-4.37-3.62-9.45-5.21-14.27-.66-2,.38-3.16,2.18-4.4A32,32,0,0,0,346.5,518.6c2.64-7.29,1.59-15.44,5.87-22.29.95-1.51,1.12-2.75,3.39-2.85,4.53-.22,7.67-2.94,7.88-6.48a58.91,58.91,0,0,0-.05-9c-.54-5.93-4.07-7.59-9.22-4.51-1.42-2.86-1.4-2.81,1.45-3.95a15.47,15.47,0,0,0,3.3-1.78c3.29-2.36,6.73-1.78,9.12,1.46a26.19,26.19,0,0,0,3.12,3l.77-.67c-.4-2.84-1.49-5.46-4.14-6.94-6.16-3.47-11.05-.26-15.68,3.92l-1.89-3.42.08.06-.71-1.44c-1-.77-1.8-1.95-2.86-2.18-2.1-.45-2.37-2.08-3.34-3.49-3.47-5-5.19-11.81-12.73-12.76-2.3,5.77-7.1,8.76-12.83,10a53.51,53.51,0,0,1-12,.73c-13.3-.23-25.38-8.46-29.87-20.82-.17-.47-.5-1.13-.89-1.24a11.89,11.89,0,0,0-2.55-.18c0,1-.37,2.21,0,3.05,3.81,8.28,9.56,14.76,17.83,18.49-.91,1.91-1.67,3.63-2.54,5.3-.34.63-.85,1.5-1.42,1.63-8.84,2-11.93,8.77-12.94,16.62-1,8,2.31,17,12.35,19a4.46,4.46,0,0,1,2.65,3c1.15,5.25,2.07,10.55,2.84,15.86,1.21,8.28,3.82,15.7,12.27,19.17,3.74,1.53,7.81,2.28,12.05,3.48-.85,2.91-1.52,5.89-2.6,8.72-1.41,3.69-3.43,6.44-7.84,7.7-4.17,1.19-7.78,4.21-11.75,6.2-8.05,4-16.22,7.8-24.23,11.9-2.51,1.28-5.81,2.8-6.73,5-2.17,5.29-6,9-10.17,12.16A49.74,49.74,0,0,1,239,598.79c-8.83,3.08-14.28.39-19.12-8-5.48-9.5-6.48-20.11-7.58-30.68-.68-6.5-1.07-13-2-19.51-1.29-9.28-3-18.49-4.37-27.77-.86-6-1.29-12.07-2-18.1-.8-6.86-1.36-13.69.57-20.48a35.14,35.14,0,0,0,.75-4.78c2.82.13,5,.53,7.11.28,6.92-.83,13.82-1.83,20.72-2.87,3.25-.49,3.91-3.34,3.72-5.73-.81-10.53-2-21-3-31.55-1.21-13.05-2.44-26.1-3.45-39.16-1.3-16.63-2.32-33.27-3.6-49.9-.47-6.17-1.28-12.31-2.06-18.45-.38-3-2.3-4.46-5.28-4.1-2.37.28-4.7.94-7.06,1.36-14.79,2.7-29.59,5.32-44.36,8.06-12.69,2.36-25.34,4.86-38,7.27-3.7.7-7.45,1.2-11.11,2.06a3.53,3.53,0,0,0-2.29,2.29,35.91,35.91,0,0,0,0,8c1,8.17,3,16.31,3.12,24.48q.51,30.79,3.58,61.39c.88,8.7,1,17.47,1.57,26.2q.53,8.07,1.38,16.13c.57,5.42,3.39,7.4,8.79,6.58s10.9-1.41,16.32-2.3c7.54-1.23,15-2.64,22.57-4a41.73,41.73,0,0,0,1.77,5.2c3.38,7.1,5,14.64,6,22.37,2.2,15.66,4,31.41,7.22,46.87a416.75,416.75,0,0,0,12.46,46.93c4.47,13.39,12.92,24.29,28,27.09,7.31,1.36,15.11,2.79,22-1.6,5.39-3.43,10.34-7.56,15.61-11.19a28.74,28.74,0,0,1,5.67-2.54c1.44-.57,3.14-.69,4.39-1.51,7.21-4.77,14.32-9.7,22.18-15.06.65,4.41,1.52,8.27,1.75,12.16.46,7.94.48,15.91.94,23.85.1,1.76,1.31,3.46,2,5.18l1.28-.35a17.38,17.38,0,0,0,.12-2.16c-.25-5.75-.45-11.5-.82-17.24-.38-6.18-.61-12.39-1.57-18.49-.33-2.13-2.26-4.43-4.09-5.82-2.27-1.73-3.82.86-5.55,2-6.83,4.69-13.71,9.3-20.91,14.17a6.51,6.51,0,0,1,.38-2c2.25-3.52,2.09-7.45,1.9-11.34-.23-4.89-4.4-9.87-9.31-11.75l43.45-21.67a34,34,0,0,1,3.18,5.2c2.88,7.27,11.55,9,17.1,6.29,3-1.5,5.54-4.27,7.94-6.79,1.9-2,3.24-3.91,6.16-1.37,1.09,1,2.87,1.25,4.4,1.58,5.08,1.11,10.66.78,14.95,4.25,10.27,8.33,17.84,18.63,21.06,31.61,1.29,5.25,1.59,10.75,2.26,15.52l-16.68,4.41a32,32,0,0,0-1.51-5.18c-2.63-5.68-4.76-11.84-10.1-15.63-2.27-1.61-5.37-2.05-8.1-3-.61,2.49-1.24,5-1.84,7.48a3.61,3.61,0,0,0,0,1c.56,11,1,22,1.78,33,.08,1.24,1.59,2.38,2.43,3.57l1.48-.58c-2.23-13.64-3.1-27.3-1-41.31,2.87,1.83,5.77,3.62,7.24,6.21,2.58,4.51,4.37,9.48,6.29,14.34,1,2.51,1.1,5.43,4.14,6.73.43.18.49,1.39.61,2.15,1.23,7.5-2.64,13-7.31,18.08-5.36,5.81-11.85,7.93-19.53,5-3.4-1.3-6.84-2.51-10.15-4-15.34-7-31.09-12-48.27-11.53-5,.14-8.75,1.81-11.74,5.76a5.15,5.15,0,0,1-3.35,1.88c-17.28.84-34.56,1.54-51.84,2.28-4,.17-7.77.85-11.22,3.41a174.48,174.48,0,0,1-17.33,11.61c-8,4.56-16.41,8.41-24.55,12.74-3.74,2-7.26,4.39-11.38,6.91,3.08,1.71,5.29,1.6,7.65.13a81.65,81.65,0,0,1,9.24-5.22c12.55-5.64,24.65-12.06,35.71-20.32a27.43,27.43,0,0,1,17.59-5.4c8.61.13,17.23-.8,25.85-1.29.56,0,1.12-.33,1.68-.33,6.3,0,12.59,0,19,0,0,1.31-.48,3.08.08,3.52,3.76,2.93,3.37,7.85,5.72,11.32,6.11,9,17.68,8.47,24.56,4.26,3.2-2,2.95-5.94-.44-7.64a34,34,0,0,0-3.5-1.39c4.2,0,9,0,13.85,0a4.52,4.52,0,0,1,1.31.37c6,2.05,12.05,4.12,18.08,6.15,13.63,4.59,27.35,5.34,40.76-.39,8.28-3.54,16.1-8.06,17.94-18.19.24-1.32.57-2.61.79-3.63,1.54.65,2.89,1.74,4.15,1.66,7.45-.47,14.86-1.38,22.3-1.82,17.36-1,34.73-2.2,52.11-2.71,20.56-.59,41.14-.57,61.71-.76,7.75-.08,15.51,0,23.26,0,12.22,0,24.44.18,36.66.08,7-.06,14-.69,21.07-.75,5.41-.05,10.83.31,16.24.69a5,5,0,0,1,3.2,1.69c4.13,5.15,8.28,10.18,14.91,12.31,5,1.61,7.1.84,8.51-4.12,1.14-4,1.62-8.23,2.33-12,2.51-.15,5.21-.18,7.87-.52,3.17-.4,6.29-1.34,9.47-1.57,11-.81,22-1.53,33-2.07,12.1-.59,24.2-1.29,36.3-1.34,21-.08,42.06.39,63.09.48,22.22.1,44.43,0,66.65.06,6.69,0,13.38.46,20.07.63,3.6.09,7.2,0,11.54,0-4-6.08-9.88-2.79-13.67-4.15V581.25l1.65-.38c4.35,8.21,8.64,16.44,13.06,24.61,6,11.16,3.2,21.22-3.17,31.21-4.75,7.45-11.38,12.9-18,18.36-4,3.29-8,7.23-12.72,8.88a149,149,0,0,0-28,12.72,2.56,2.56,0,0,1-1.35.45c-1.64-.1-3.3-.59-4.91-.43-6.71.65-13.39,1.58-20.1,2.24-9.93,1-19.91,1.5-29.79,2.83-5.66.76-11,1.51-16.79.15-5-1.16-9.94-1.4-14.31,3.89-7.85,9.51-16.81,18.11-25.46,26.93-5.49,5.61-11.3,10.91-16.82,16.48a3,3,0,0,0,.2,3,7.57,7.57,0,0,0,3.32,1.5c6.38,2,12.83,3.77,19.17,5.89,6.78,2.28,13.46,4.88,20.19,7.29,2.89,1,3.81-.15,3.35-2.1L718.54,730l24.7-23.47c1.66-1.58,3.42-3.07,5-4.76,4.85-5.37,9.6-10.84,14.46-16.2a3.14,3.14,0,0,1,2.29-1c5.54.63,11.07,1.42,16.72,2.17a6.93,6.93,0,0,1,0,1.87c-2.22,8.49-4.06,17.11-6.85,25.42-4,12.08-8.81,23.92-13.27,35.87-1.27,3.41-.19,5.22,3.52,5.15,8-.14,15.92-.57,23.88-.85,6.8-.23,13.25-2,20.49-.17,14.47,3.69,29.58,2.12,44.43,2.4.76,0,2.17-.86,2.21-1.4.22-3-.09-5.88-2.78-8.16-.1,1.75-.2,3.5-.3,5H813.15c0-.36,0-.73-.07-1.1l50-7.68c-.26-1.46-.67-3.31-.91-5.18-.93-7.51-1.73-15-2.8-22.53-.18-1.25-1.46-2.35-2.23-3.52l-1.19.66c1.07,9,2.13,18.1,3.23,27.49-1.06.16-2.27.37-3.47.54-10.89,1.5-21.8,2.93-32.68,4.51-9.85,1.43-19.65,3.3-29.54,4.44-9.21,1-18.51,1.39-27.9,2a7.5,7.5,0,0,1,0-1.94,67.93,67.93,0,0,1,2.91-8.71c8-17.16,13.38-35.14,17.34-53.61a3.72,3.72,0,0,1,2.64-2.22c12.47-1.06,25-1.79,37.44-2.93,5.6-.51,11.42-.67,16.26-3.8,5.55,5.48,12.34.7,18.91,2.06-2,1.76-3.67,3.22-5.29,4.77-3,2.87-6.11,5.68-8.88,8.77-.86,1-1.49,3.57-1,4,1.16,1,3.07,1.29,4.72,1.66a3.55,3.55,0,0,0,1.92-.56c2.64-1.21,5.25-2.46,8.66-4.06-1.85,3-3.34,5.28-4.62,7.63-1.68,3.08-.42,5.29,3.05,5.22,1.53,0,3.48-.3,4.48-1.26a66,66,0,0,0,6.36-7.47c1.51-1.91,2.84-4,4.25-5.94l1.14.49c-.94,4.29-1.78,8.6-2.86,12.85-.59,2.32-.89,4.34,1.75,5.49s4.29-.79,5.22-2.61a93.05,93.05,0,0,0,3.71-9.5c.86-2.23,1.77-4.45,2.66-6.67l.89.24c.45,3.86,1,7.72,1.36,11.59.35,3.26,2.49,6,4.6,5.39,3-.86,3.27-3.4,3.16-6.07-.15-3.81-.17-7.62-.34-11.42a54.66,54.66,0,0,1,7.22-29.13c2-3.68,4.85-6.94,7.48-10.26A72.43,72.43,0,0,0,923.47,629c13.71,3.72,27.24.72,40.81,2.06C963.89,627.41,962,626.73,959.41,626.8Zm-77.35-75.7c-6.85,5.29-14.86,7.5-23.32,7.56-1.56,0-3.13-2.91-5.22-5,10.78-1.39,20.74-2.17,28.49-9.37C885.1,547,885.2,548.67,882.06,551.1ZM130.58,478.59c-.54-5.88-1.11-11.42-1.55-17q-1.44-18.19-2.77-36.38c-.54-7.45-1.08-14.9-1.41-22.37-.56-12.54-.72-25.11-1.5-37.64-.38-6.12-1.7-12.19-2.7-18.26-1.17-7.1-.9-7.13,6.21-8.31,14.84-2.45,29.62-5.27,44.42-7.95.22,0,.45-.24.65-.21,7.95,1.12,14.91-2.86,22.36-4.3,8.62-1.67,17.28-3.09,26.53-4.72a82.79,82.79,0,0,1,1.84,9.76c.48,6.32.36,12.69.84,19,.71,9.27,1.79,18.52,2.6,27.78.61,6.87.93,13.77,1.56,20.64,1.29,14,2.78,27.9,4,41.86.63,7.1.85,14.22,1.28,21.7l-27.61,4.44c1.42-7.92,2.95-15.48,4-23.11.26-1.88-.4-4.78-1.72-5.78-2.07-1.56-4.57-.39-6.24,1.81-.81,1.06-1.73,2-2.82,3.33,0-3.06.36-5.88-.08-8.57-1.05-6.54-2.79-7.28-8.55-3.88-.11.23-.19.46-.28.69s-.26.61-.38.91a5.17,5.17,0,0,1-.42.85c-.12.2-.16.45-.33.61a.11.11,0,0,1-.14,0,4.35,4.35,0,0,1-.5-.55c-.18-.19-.37-.37-.56-.55s-.4-.37-.59-.57-.28-.32-.42-.48c-4.42-2.93-6.26-2.27-7.24,2.14-.51,2.3-.72,4.66-1.15,7.56a53.93,53.93,0,0,1-3-6.34c-.92-2.79-2.72-4.53-5.51-4.13-3.06.44-4.28,3.26-4.18,5.93.21,5.6.79,11.21,1.53,16.77.64,4.74,1.68,9.43,2.62,14.12a28.73,28.73,0,0,0,1.38,3.64C157.85,475.5,144.11,475.65,130.58,478.59ZM268.17,586.34c4.64,6.37,4.93,14.26-.68,19.71a141.16,141.16,0,0,1-17,13.68c-2.14,1.52-5.31,2-8.05,2.13-6.45.32-12.88-.45-18.73-3.33-6.34-3.13-10.8-8.34-14.47-14.32-5.58-9.09-8.17-19.27-10.72-29.42-2.22-8.83-4.18-17.73-5.82-26.68-1.8-9.87-3.12-19.83-4.66-29.75-1-6.2-2.17-12.37-2.85-18.59A62.73,62.73,0,0,0,179,479c-.88-1.81-1.63-4.28-3.14-5.05-2.44-1.22-1.94-3.24-2.29-4.89-1.46-7-2.92-14.05-3.83-21.14-.55-4.33-.1-8.78-.1-13.17,4.66,5.09,4.69,11.19,5.9,16.93.36,1.68.21,3.51.81,5.06a24.34,24.34,0,0,0,2.86,4.4l1.12-.43,2.07-23.84h.88c.24,2,.56,4,.69,6,.27,4.25.41,8.51.67,12.76.17,2.73,1.44,4.49,4.56,4.58,1.22-9.15,1.38-18.44,4.61-27.11l1.36.16c-.39,5.64-.73,11.29-1.22,16.92-.29,3.42-.38,6.65,3.38,8.7L204,441.36l1.42.44c-.27,1.66-.55,3.32-.81,5s-.54,3.4-.81,5.09c-1.52,9.84-3.22,19.66-4.46,29.53-.42,3.36.13,6.9.57,10.31,1.7,13.17,3.6,26.32,5.3,39.49,1.11,8.52,2.15,17.07,3,25.63,1,10.83,1.74,21.72,6.29,31.81,2.91,6.45,6.35,12.76,14.18,14.14a23.85,23.85,0,0,0,16.5-3.36c5.62-3.43,10.6-7.93,15.84-12,1.09-.84,2.07-2.29,3.24-2.45A4.83,4.83,0,0,1,268.17,586.34Zm85.95-108c.48-1.45,2.63-2.34,4-3.49a23.06,23.06,0,0,1,2,3.61c.34.92,0,2.06.17,3.08.86,6.84-2.26,9.72-9.12,9.17A123.89,123.89,0,0,1,354.12,478.29Zm-10.7-13.86a5.7,5.7,0,0,1,3.65,2.07c7.19,9.28,2.68,24.26-8.41,28.09a13.8,13.8,0,0,1-3.46.5c-10.31-.29-15.73-8.27-12.89-17.17C325.51,467.91,334.86,463.92,343.42,464.43Zm-49.48-7.73c6.88,2.95,14.26,2,21.55,2.19,5.65.18,10.18-2.41,14.3-5.72,1.32-1.06,1.7-3.28,3-6l8.45,12.7c-5.19,2-9.95,3.3-14.13,5.64-2.61,1.46-4.79,4.22-6.36,6.88s-3.09,2.5-5.45,1.93-4.76-.71-7.26-1.06c-1.81-2.45-3.52-6-6.32-8.21s-6.56-2.87-10.09-4.29ZM289.83,495c-8.37.89-12.64-6.59-12.32-13.75.35-7.87,5.63-16.89,15.1-16.4,7.74.41,11.92,6.18,12,15.76C304.72,490,299.36,495,289.83,495Zm9.67,33c-2.75-3.79-3.31-9.25-4.49-14-1.25-5.07-2.06-10.25-3-15.06L302.94,496c-.1,1.38-.31,3.08-.35,4.77-.18,7.8,5.39,11.65,13.89,8.7a18.39,18.39,0,0,0-3.18-1.93,15.66,15.66,0,0,0-2.76-.11c-3-.41-5.17-1.42-4.56-5.18.9-5.63,1.68-11.28,2.29-16.95a88.18,88.18,0,0,0,.05-8.84l9.92,1.11c-1.89,9.24,1.88,15.62,9.85,19.24,8.25,3.76,15.38,1.17,21.88-5-.43,1.4-.44,3.23-1.36,4.11-3.28,3.13-2.89,7.27-3.48,11.1-1.37,8.9-3.91,17.1-11.25,23.13C324.48,537.77,307.32,538.81,299.5,528Zm24.82,39.35c-4.93.77-7.17-.18-9.44-4.51-1-1.9-2.22-3.7-3.43-5.7,4.38-4,6.22-9.28,7.16-15,.35-2.11,1.08-3.83,3.9-3.75,1.77,0,3.55-.7,5.41-1.11.91,3.62,1.51,7.34,2.82,10.79s3.3,6.4,5.11,9.82C332.66,561.48,330.27,566.4,324.32,567.34Zm60.95,77.73c-2.09,7.86-8.37,11.33-14.67,14.73-6.76,3.65-14.41,4.87-21.83,4.88-6.37,0-12.83-1.86-19.08-3.55s-12.19-4.23-18.33-6.19c-1.62-.52-3.49-.26-5.25-.38a59.63,59.63,0,0,1-7.82-.67c-2.78-.57-5.12-.75-6.92,2a15.08,15.08,0,0,1-2.76,2.51c2.57,4.66,7,2.25,10.89,3.43-.46.86-.68,1.79-1.26,2.25-3.88,3-12.57,3.13-16.58.29-3.85-2.73-4.39-5.75-1.83-9.72,1.2-1.88,2.3-3.83,3.44-5.75l-1.12-1.13-7.2,5.52c-.12-1.4-.55-2.83-.28-4.11,1-4.9,6.88-10,12.71-10.06,15.94-.17,30.66,4.11,44.91,10.69,6.2,2.87,12.37,6.21,19.38,6a19,19,0,0,0,9.94-2.87c10.25-7.24,15.33-16.79,11.05-29.47,3.15-2.22,6.57-3.93,10.61-3.65.91.07,2.43,1.23,2.48,2C386.29,629.53,387.34,637.28,385.27,645.07ZM629.39,525.49c4.29.87,5.86,3.5,4.27,7.46a27.52,27.52,0,0,1-9.09,12.19,49.35,49.35,0,0,0-7.22,6.39c-1.73,1.92-3,4.22-1,7,5.4,7.51,11.11,14.85,15.8,22.79,3.95,6.67,6.83,14,9.72,21.25.51,1.28-.8,3.83-2,5.13a20,20,0,0,1-13.21,6.39c-2.62.24-5.58-3-6.11-6.4-2.65-16.87-8.27-32.78-15.71-48.07a16.47,16.47,0,0,0-5.06-5.74c-6-4.33-6.87-7.88-2.59-13.76a24.21,24.21,0,0,1,5.38-5.36c2-1.43,4.4-2.56,6.82-.24.58.56,1.67.58,2.87,1-10.33,3.74-14.14,7.94-10.86,11.9,3.37-4.82,8.26-7.45,13.74-8.69,3.35-.76,2.74-3.44,3.76-5.36-1.19-.56-2.4-1.62-3.57-1.58-3,.1-5.81.16-8.28-2.1-1.76-1.59-1.71-2.79.34-3.59,4.31-1.68,8.54-3.78,13.5-2.14C623.64,524.83,626.59,524.92,629.39,525.49ZM609.2,578.38a25.51,25.51,0,0,1-18.5-23.19c0-.87-.75-1.68-.91-2.57a11.15,11.15,0,0,1,.09-2.44,6.38,6.38,0,0,1,2.2.69c1.14.9,2,2.27,3.18,3,7.31,4.55,9.21,12.38,12.14,19.6C608,574.92,608.46,576.37,609.2,578.38ZM566.35,547c-4.88-2.6-8-6.63-8.3-12.19a55.86,55.86,0,0,1,9.82-35.29c7.55-11.28,16.41-20.81,28-27.91,1.38-.85,2.15-2.67,2.78-3.49,1.88,2,3.75,4.59,6.22,6.37,6.63,4.76,13.52,9.16,20.31,13.71V502c-1.46,1-3.42,1.88-4.67,3.35a4.91,4.91,0,0,0,0,6.91c1.85,2,2.84,3.71,1.06,6.22-.33.46.09,1.45.22,2.63-2-.42-3.85-1.34-5.5-1a52.75,52.75,0,0,0-12.08,3.21c-2.8,1.23-3,4.13-.82,7a21.33,21.33,0,0,0-11.92,13,5.8,5.8,0,0,1-4.76,4.31C579.83,549.2,573,550.58,566.35,547Zm-88.26-65.35c-4.11.46-4.48.2-4.74-3.85-2.65-40.87-.93-81.79-1.51-122.68-.14-9.42-.38-18.85-.5-28.27-.07-5,.49-5.47,5.53-5.47,10.29,0,20.59-.2,30.88,0,23.32.52,46.63,1.25,71.26,1.93.18,8.44.68,17.26.46,26.07-.19,7.45-1.27,14.88-1.87,22.33q-1.7,21-3.29,42c-.37,4.94-.57,9.9-.72,14.86-.35,11.2-.58,22.4-.92,33.59-.14,4.61-.35,9.22-.74,13.81-.06.83-1.07,2.22-1.73,2.27-12.7,1-25.42,1.82-37.77,2.65-.71-3.72-.9-6.81-2-9.53-.43-1.05-2.92-1.26-4.57-1.89-.42-2.44-.14-5.8-1.6-8-1.88-2.87-5.25-1.86-8.09-.21-1.45-2.62-3.48-3.67-6.36-2.9a2.42,2.42,0,0,1-1.68-.42c-2.91-1.91-5.27-1.46-7.51,1.22-5.43,6.51-6.92,14.51-8.64,21.71C487.25,481.13,482.64,481.17,478.09,481.68Zm9.39,80.79c.87-15,3-29.86,5-44.74.79-6.21,2.37-12.31,3.53-18.47a7.29,7.29,0,0,0-.29-2,58.33,58.33,0,0,1,4.94-30.5,22.59,22.59,0,0,1,2.91-4l.75.36c-1.11,4.15-2.5,8.26-3.26,12.48a42.71,42.71,0,0,0-.41,10c.06,1.13,1.57,2.18,2.86,3.14a55.6,55.6,0,0,1,6.45-27c.23-.43,1.71-.18,3.37-.3-.69,2.6-1.3,4.81-1.88,7-1.26,4.83-2.72,9.62-3.6,14.52-.23,1.28,1.36,2.88,2.48,5,.76-1.47,1.26-2,1.21-2.4-.73-7,2.81-13.13,4.61-19.57.41-1.47,3.46-2.21,5.29-3.28l1.2.68c-.8,3.18-1.42,6.41-2.43,9.52-1.58,4.87-3.22,9.75-5.22,14.47-1.27,3,.24,3.9,2.39,4.72,1.89-5.19,3.93-10.24,5.55-15.42,1-3.15,2.6-4.27,6.45-2.92-1,3.58-1.71,7.37-3.21,10.81-2.67,6.1-5.37,11.93-4.93,19a14.79,14.79,0,0,1-3.58,9.67c-4.79,5.42-6.61,11.69-7.26,18.47-1.12,11.65-2.25,23.32-2.74,35A104.42,104.42,0,0,0,509,586c.56,3.74-1.31,5.79-3.58,7.72a8.06,8.06,0,0,1-8.72,1.46c-2.41-1-4.71-2.26-7.71-3.71C488.44,582.14,486.91,572.24,487.48,562.47ZM505,634.56a51.72,51.72,0,0,0-4.62-6.44c-4.77-5-5.88-11.1-6.37-17.6-.14-1.88-1.28-3.69-1.95-5.53a72.26,72.26,0,0,1-2.91-9.32c7.92,3.58,15.16,4.9,22-2.56,4.19,5.17,3.12,12.46,7.27,17.76,3.91,5,5.4,11.69,9,17l1.72-.66a46.06,46.06,0,0,0-1.47-6.55c-1.16-3.08-2.6-5.54-1.16-9.44,2.28-6.13,2.67-12.93,4.45-19.29,2.4-8.55,7.37-15.22,16.24-18a35.18,35.18,0,0,1,9.45-1.25c9.62-.23,17.62-10.52,15.53-19.86,3.4-.34,6.8-.82,10.22-1,2.81-.13,4.42,1,5,4.26,1.57,9.7,5.53,18.16,14.63,23.18a10.14,10.14,0,0,0,4.86,1.49c2.74-.08,3.7,1.19,4.4,3.55,2.93,9.73,6.28,19.34,5.87,29.75a8.3,8.3,0,0,0,4.1,7.81c1,.62,1.6,2,2.11,3.21,1.29,3,2.43,6.08,3.76,9.43Zm145.63,12.06c-1.07,3.93-2.44,4.49-5.94,2.68-7.06-3.66-11.26-9.91-14.41-16.92-1.44-3.19-2.28-6.66-3.75-9.84-.56-1.22-2.2-1.92-3.17-3a19.16,19.16,0,0,1-2.87-4.22c11.15,4.27,24-1.63,26-11.9.18,1.65.9,3.47.44,4.92-1.49,4.66.76,8.51,2.32,12.44A39.82,39.82,0,0,1,650.67,646.62ZM861.1,705c-.46-.61-.61-.8-.77-1a4.17,4.17,0,0,1,.84-.43c.09,0,.39.29.37.41A5.07,5.07,0,0,1,861.1,705Zm1.26-.89-1.55-1.23q3.81-5.12,7.64-10.22l1.33,1Zm31.92-27.51c-1.83,7.61-2.77,15.35-1.56,23.22a38.81,38.81,0,0,1,0,5.81l-.38-.09c-.56-3.94-1.09-7.89-1.72-11.82a10.35,10.35,0,0,0-1-2.89c-1.43-2.93-4.15-3.23-5.69-.37a97.47,97.47,0,0,0-4.23,10,42.6,42.6,0,0,1-2,4.64c.37-3.67,1-7.35,1-11,0-1.74-.63-4.1-1.85-5.07-1.93-1.52-3.51.5-4.9,1.9a8,8,0,0,1-1.36.89,3.89,3.89,0,0,1-.25-.86c0-1.69,0-3.37.06-5.06-2,.51-4.2.57-5.84,1.6-4.49,2.81-8.73,6-13.06,9.08l-.81-1c2.59-2.42,5.22-4.81,7.78-7.26a46,46,0,0,0,5.73-5.87c1-1.35,1.05-3.36,1.53-5.08-1.8-.32-3.61-1-5.39-.87-3.23.19-6.43.84-9.65,1.3l-.36-1.15c6.77-3.06,13.54-6.15,20.34-9.16,1.56-.7,3.26-1.1,4.85-1.74a14.35,14.35,0,0,1,16.91,4A6.85,6.85,0,0,1,894.28,676.56Z" transform="translate(-116.44 -314.12)"/><path class="cls-1" d="M827.5,551.72c-1.48-3.77-3.43-7.05-4-10.55s-1.36-6-4-8.64c-3.84-3.93-3.22-9.51-2.92-14.72.25-4.48.42-9,.41-13.46,0-2.47-1.24-3.91-4-4a25.42,25.42,0,0,1-7.09-1.17c-4.11-1.34-5.24-3.43-3.72-7.38,2.91-7.53,6.12-14.95,9.45-23a7.83,7.83,0,0,1,.67,8.44c-2.6,5.91-5,11.93-7.73,18.65,3.89.67,7.16,1.38,10.47,1.76,2.93.33,4.65,1.73,5.19,4.59a28.58,28.58,0,0,1,.81,5.08c0,3.76-.59,7.74,4.74,8.55.24,0,.47.5.6.8a8.8,8.8,0,0,1,.21,1.55l-6-2.07c0,3.83-.35,7.38.1,10.83.49,3.81,3.33,6,6.72,7.57,1,.48,1.75,1.62,2.61,2.46l-.65.9-3.15-.34c0,.84-.33,2,.06,2.77,2.19,4.34,2.63,9.79,8.1,12.14,1.13.49,1.82,2.81,2.06,4.39a49.4,49.4,0,0,1,.09,7.13c-5.41-1.49-2.46-6.15-3.78-9.23-3.07-1.09-4.67,1.3-6.35,3.11-7,7.52-14.52,14.41-23.48,19.56-10.58,6.07-20.17,3.13-29.93-2.63-11.43-6.73-12.91-18.57-16.1-29.47a77.32,77.32,0,0,1-2.67-17.61c-.26-5,.65-10.05,1.06-15.38a21,21,0,0,1-15.85-8.05c-.71,17.1-3,33.1,2.45,48.8,4.79,13.84,12.58,25.38,24.9,33.55a40.41,40.41,0,0,0,19.54,6.76c8.92.67,17.69,0,25.42-5.27a18,18,0,0,0,4-3.84c2.67-3.46,5.14-7.06,7.69-10.61l1.39.67c-.5,1.82-.54,4-1.59,5.43-9.43,12.84-13.22,27.43-13.85,43.07a4.89,4.89,0,0,1-.39,1.23c-3.63-.45-4.08-.79-3.46-4.25,1.64-9.19,3.48-18.35,5.28-27.7.5.15.13-.1-.09,0-15.67,6.66-31.11,6-45.68-2.65a54.11,54.11,0,0,1-22.53-25.64c-2.79-6.51-6.45-12.75-6.88-19.94-.59-9.88-.89-19.8-.77-29.7.15-13.19,4.69-26,3.93-39.33-.22-3.82.89-7.71,1.41-11.57a1.22,1.22,0,0,1,.21-.65c4.54-4.78,1.55-10.23.6-14.95-3.91-19.44-8.3-38.79-13-58.05-3-12.26-7-24.27-10.43-36.44-1-3.53-2.76-7.53.73-10.58a18.37,18.37,0,0,1,7.19-3.75c11.95-3.18,24-6,36-9.09,9-2.35,17.94-5,26.91-7.49,10-2.76,19.89-5.65,29.93-8.09,1.66-.41,4.2.74,5.66,2,4.69,4,6.78,9.66,8.37,15.38,5.88,21.14,11.45,42.36,17.43,63.46C855,413.41,860.52,431.67,866,450c.53,1.76.44,2.83-1.5,3.42-3.24,1-6.45,2.1-10.91,3.57,6.28,2.2,11.69,4.36,17.26,6,2.4.68,5.14.18,7.72.21a9.33,9.33,0,0,1,2.75,0,9.19,9.19,0,0,1,2.33,1.63,9.28,9.28,0,0,1-2.21,1.62c-6.25,2.12-11.94-.48-17.58-2.5-3.84-1.38-7.4-3.53-11.11-5.26-1-.45-2.18-1.11-3.07-.87q-18.72,4.85-37.37,10c-7.57,2.09-14.95,5.26-22.64,6.36-4.67.67-6.11,3.57-8.62,6.19a97,97,0,0,1-10.61,9.87,11.11,11.11,0,0,0-4.09,6.35c-.8,2.82-2.16,5.47-3.19,8.22-1.72,4.64-4.48,9.22-4.85,14-1.31,16.67,1.69,32.8,10.59,47.1,8,12.88,22.79,15.68,35.31,6.07,7-5.35,13.06-11.85,19.6-17.77A28.32,28.32,0,0,1,827.5,551.72Zm34.88-102c-3-9.61-5.93-18.33-8.33-27.2-7.11-26.27-13.87-52.64-21-78.89a197.06,197.06,0,0,0-7.74-21.82c-1.78-4.37-3-4.51-7.59-3.22-8.21,2.33-16.41,4.72-24.68,6.8-18.09,4.56-36.26,8.81-54.32,13.47a101.77,101.77,0,0,0-16,5.81c-1.36.61-2.64,3.26-2.54,4.88.19,3,1.41,5.94,2.23,8.89,4,14.43,8.54,28.75,12,43.32,4.68,19.75,8.54,39.68,12.53,58.5,2.46-3.52,5.19-8.15,8.63-12.17,3.87-4.52,8.08-3.36,9.73,1.57,2.34.18,5.5-.4,6.18.64,1.37,2.09,1.39,5.07,2,7.77a1.82,1.82,0,0,1,1-.43c2,0,3.89.15,5.84.25a32.69,32.69,0,0,1-.59,5.36,45.67,45.67,0,0,1-2.51,5.75c7.13-2.67,8-2.48,9.9,1.78Zm-101-1.12c-4.36,2.06-5.95,5.35-7.7,8.49-6.88,12.41-9.6,26.18-12.93,39.75-.38,1.56-.44,3.78.39,5,2.33,3.3,5.38,6.08,9.56,6.88,3.15.6,6.21.56,7.72-3.24,1.63-4.1,3.36-8.17,5.23-12.17a17.4,17.4,0,0,1,3.28-5c3.34-3.3,7.12-6.18,10.39-9.55,2.12-2.19,3.67-4.94,5.47-7.44l-1.1-1-14.39,11.37c-.73-.61-1.66-1.39-2.37-2l12.26-18.85c-8.49,2.13-10.61,9-14.74,13.9-2.81-1.18-3.34-2.73-1.61-5.28,2.25-3.31,4.3-6.76,6.27-10.25a54.67,54.67,0,0,0,2.47-5.64c-7.38,3.3-9.27,10.76-13.37,16.16-3.48-1-3.4-2.95-2.17-5.35,2-3.88,4-7.77,5.9-11.69C760.48,451.59,760.76,450.43,761.41,448.58Z" transform="translate(-116.44 -314.12)"/><path class="cls-1" d="M613.58,671.69c3.84,3.7,2.26,8.58,1.1,13.09-2.46,9.58-5.46,19-8.07,28.58-1.77,6.49-3.22,13.06-4.86,19.59a18.66,18.66,0,0,1-1,2.45c-6.87-7.75-15.38-3.09-23.08-3.48-5.53-.28-11.13,1.16-16.72,1.63-4.81.4-9.65.73-14.48.7-10.69-.08-21.38-.37-32.07-.64-4.83-.13-9.66-.31-14.47-.72-1.7-.14-3.34-1-5.46-1.76,11.17-14.46,22-28.43,33.41-43.27-5.61,1.73-10.54,3.12-15.35,4.84-.79.28-1.34,1.95-1.52,3.06-.42,2.48-.25,5.08-.86,7.49-.48,1.86-1.79,3.49-2.73,5.22L506.1,708c.21-1.58.43-3.17.63-4.76.48-3.75.85-7.52,1.49-11.24A3.6,3.6,0,0,1,510,689.5c5.62-1.81,11.22-4.06,17-4.83,5.19-.68,7.28-4,9.77-7.53.65-.91,1.79-2.08,2.7-2.08,10.67,0,21.35.33,32,.23,6.78,0,13.55-.69,20.33-1,6-.32,12.11-.57,18.16-1C611,673.19,612,672.41,613.58,671.69Zm-.8,6.58c-8.3,0-15.77-.13-23.23,0-7.25.16-14.49.85-21.74.93-7.85.1-15.7-.34-23.54-.3-1.64,0-3.86.6-4.82,1.75q-12.36,15-24.3,30.25c-4.54,5.83-8.69,11.95-13.42,18.51a58.89,58.89,0,0,1,5.89-.3c4.59.27,9.16.89,13.74,1,4.14.1,8.29-.36,12.43-.43,5.85-.1,11.7.11,17.54-.14,14.95-.62,29.89-1.46,44.84-2.1,2-.08,2.63-.66,3.15-2.63,2.81-10.67,5.83-21.3,8.88-31.92C609.64,687.93,611.3,683,612.78,678.27Z" transform="translate(-116.44 -314.12)"/><path class="cls-1" d="M246.1,741.59c7.21.49,10.33-5.4,14.69-9.37,9-8.23,18-16.45,26.85-24.9,5.82-5.58,11.28-11.55,16.91-17.34,1.91-2,3.92-3.81,5.73-5.85,1.66-1.88,3.22-2.72,6-2,2.22.55,4.77-.43,7.17-.41,17,.17,33.94.47,50.91.6,4.37,0,8.73-.48,13.1-.57s6.44,2.63,4.32,6.55c-3.82,7-7.94,13.89-12.14,20.69-7.73,12.51-15.69,24.89-23.37,37.43-1.84,3-4.72,2.77-7.23,2.84-10.24.25-20.49.19-30.74.11-10.51-.08-21-.14-31.51-.56-4.52-.18-9-1.32-13.49-1.9-6.11-.78-12.22-1.47-18.34-2.12a6.33,6.33,0,0,0-2.67.43C247.82,746.78,247.54,746.65,246.1,741.59Zm11.56-.69c2.11.41,3.52.68,4.94,1,10.2,2.13,20.35,4.41,30.94,3.75,6.45-.41,12.95,0,19.42.06q17.54,0,35.05,0c2,0,4,.12,5.36-2.16,9.79-16.08,19.74-32.07,29.58-48.11,1.84-3,3.44-6.17,5-9-8.9,0-17.38.09-25.85,0-13-.16-26.1-.34-39.14-.74-5-.16-9.09.35-12.59,4.71s-8.3,8.2-12.5,12.26c-7.35,7.11-14.66,14.28-22.07,21.35C269.91,729.58,263.91,735.07,257.66,740.9Z" transform="translate(-116.44 -314.12)"/><path class="cls-1" d="M511.79,736.69l89.6,4.61,19.66-58.78c1.91,2.6,2.59,4.8,1.63,7.47-3,8.42-6.26,16.78-9,25.29s-5.15,17.43-7.71,26.15c-.13.43-.33.83-.61,1.53l-2.72-.79.3,2.33a4.22,4.22,0,0,1-1.2.22c-10.8-.85-21.15,2.07-31.66,3.6-3.29.49-6.67.35-10,.59-11.47.84-22.93,2-34.41,2.51-6.7.32-13.45-.24-20.17-.42-1.74,0-2.43-.7-1.95-2.66a47.39,47.39,0,0,0,.68-6.68l3.27.72c-.26,2-.5,3.75-.81,6.13l63.79-3.86-.05-1.26c-7.78-.27-15.57-.4-23.33-.84-9.76-.55-19.52-1.21-29.24-2.18-2.25-.22-4.35-1.88-6.51-2.87Z" transform="translate(-116.44 -314.12)"/><path class="cls-1" d="M392.21,694c1,4,1,7.38-.88,10.45q-13.35,21.69-26.8,43.31a10,10,0,0,0-.65,1.2c-2.75,6.31-6.47,10-14.45,9.24-9.25-.86-18.67.24-28,.26-7.38,0-14.76-.43-22.14-.45-6,0-12,.44-18,.45-5.3,0-10.6-.41-15.9-.42a17.5,17.5,0,0,0-4.9,1.13c-1.63.5-3.42-1.59-3.62-4.28,9.78,0,19.56,0,29.34,0,3.43,0,6.87-.3,10.29-.26,12.25.15,24.48.51,36.73.55,7,0,14.06-.36,21.09-.71a3.79,3.79,0,0,0,2.57-1.64q14-22.51,27.84-45.16C387.32,703.4,389.52,698.94,392.21,694Z" transform="translate(-116.44 -314.12)"/><path class="cls-1" d="M246.87,760.89c1.88,0,3.75,0,5.63,0q9.93-.2,19.87-.45c1.15,0,2.3-.19,3.44-.17q31.32.59,62.65,1.2c2.13,0,4.17.24,4.41,3.45-4.16,0-8.17.06-12.18,0-17.2-.29-34.4-.72-51.6-.89-5.5,0-11,.85-16.52.77a114.22,114.22,0,0,1-13.63-1.47c-.82-.11-1.55-.88-2.32-1.35Z" transform="translate(-116.44 -314.12)"/><path class="cls-1" d="M282.23,418.73c.09.81.37,1.46.17,1.9-3.54,7.73,1.55,13,5.5,18.34s9.73,7,16,7.31,12.47.87,17.53-3.95c.17-.16.63,0,1.15,0,0,3.05-1.17,5.26-4.1,6-17.44,4.23-35.65-.77-41.32-22.27C276.06,422,277.58,419.94,282.23,418.73Z" transform="translate(-116.44 -314.12)"/><path class="cls-1" d="M795.12,757c4.4-2,8.08-.73,11.86-.1,8.79,1.45,17.6,2.82,26.45,3.83,3.85.44,7.83-.25,11.73,0,.86.05,1.84,1.71,2.3,2.82.12.29-1.55,2-2.28,1.88-11.24-1.2-22.49-2.47-33.69-4-5-.67-9.84-1.89-14.73-2.93C796.31,758.36,796,757.75,795.12,757Z" transform="translate(-116.44 -314.12)"/><path class="cls-1" d="M349.84,463.76c-1.21-11.37-9.6-20.79-21.36-24.06a10.55,10.55,0,0,1-2.27-1.3c1-.32,2-1.06,2.91-.9,7.18,1.24,13.37,4.65,17.43,10.61,3,4.46,4.88,9.73,7.17,14.69a6.2,6.2,0,0,1,0,2.29h-3.34l.08.06-.75-1.51Z" transform="translate(-116.44 -314.12)"/><path class="cls-1" d="M839.58,472.28c5.69,3.15,11.12,7,17.14,9.24s12.62,2.69,19-.12c.83,3.94-1.58,4.92-3.74,5-10.4.22-20.26-1.6-28.31-8.93-1.62-1.48-3.18-3-4.77-4.56Z" transform="translate(-116.44 -314.12)"/><path class="cls-1" d="M317.2,436.63c-1,2.42-2.43,3.56-5,3.51-6.4-.13-13,.7-18.51-3.61a53.2,53.2,0,0,1-6.86-7.2,2.54,2.54,0,0,1-.16-2.42,5.34,5.34,0,0,1,3-1.15c.28,0,.91,1.39,1,2.2.47,3.55,6,8.51,10,8.63C306.1,436.74,311.51,436.63,317.2,436.63Z" transform="translate(-116.44 -314.12)"/><path class="cls-1" d="M871.44,475.79c-2.21.76-3.59,1.74-4.84,1.59-9-1.1-16.06-6-22.71-11.69-.41-.35-.47-1.12-1.06-2.67,5.1,3,9.18,5.88,13.66,7.88S865.65,473.94,871.44,475.79Z" transform="translate(-116.44 -314.12)"/><path class="cls-1" d="M822.84,474.75c3.06-.29,4.55.93,4.47,3.57,0,.69-1.32,2-1.71,1.9C822.94,479.49,822.23,477.55,822.84,474.75Z" transform="translate(-116.44 -314.12)"/><path class="cls-1" d="M823.84,486.3l7.4,3C828.12,491.19,825.32,490.05,823.84,486.3Z" transform="translate(-116.44 -314.12)"/><path class="cls-1" d="M349.75,463.64l.75,1.51Z" transform="translate(-116.44 -314.12)"/><path class="cls-1" d="M544.11,633.58c-4-6.68-3-20.23,2.14-25.8a7.08,7.08,0,0,1,3.06-1.75,2.24,2.24,0,0,1,2,.78c.23.38-.19,1.51-.66,1.93-5.56,4.89-5.39,11.43-5.31,18,0,2.29,0,4.58,0,6.86Z" transform="translate(-116.44 -314.12)"/><path class="cls-1" d="M577.43,513.16l2.94,4.08c-3.18.69-7.48-3.56-6.71-6.51a2.24,2.24,0,0,1,1.14-1.15c4.25-2.12,8.45-4.37,12.84-6.18,1.18-.49,2.92.38,4.41.63-.87,1-1.57,2.24-2.65,2.85C585.58,509,581.63,511,577.43,513.16Z" transform="translate(-116.44 -314.12)"/><path class="cls-1" d="M602.08,503.86l10.28,10.71C606,514.75,601.69,510.26,602.08,503.86Z" transform="translate(-116.44 -314.12)"/><path class="cls-1" d="M591.09,496.07a13.36,13.36,0,0,1-3.82.36,4,4,0,0,1-2.66-1.87,58.09,58.09,0,0,1-2.08-6.7C586,488.39,591,493.09,591.09,496.07Z" transform="translate(-116.44 -314.12)"/><path class="cls-1" d="M567.06,528.32c5.37-.72,11,3.23,10.83,7.17Z" transform="translate(-116.44 -314.12)"/><path class="cls-1" d="M306.53,521.29c3-3.4,15.77-2.57,17.45,1.51Z" transform="translate(-116.44 -314.12)"/><path class="cls-1" d="M338.77,484.18l-7.73-1.7C335.19,480.26,337.58,480.83,338.77,484.18Z" transform="translate(-116.44 -314.12)"/><path class="cls-1" d="M294.59,481.21c-1.95,2.26-5.1,2.21-7.72-.59C289.77,481,292.19,478.27,294.59,481.21Z" transform="translate(-116.44 -314.12)"/><g id="_404" data-name="404"><path class="cls-2" d="M185.05,399.79c.43,10.28.88,20.57,1.35,31.39l.5.57c.18.19.38.37.57.55a7.8,7.8,0,0,1,.58.57,4.18,4.18,0,0,0,.4.44,1,1,0,0,0,.12-.25,3,3,0,0,1,.16-.31,6.65,6.65,0,0,0,.41-.85c.12-.3.25-.59.37-.89s.17-.47.28-.69c-3-27.18,0-54.78-5.34-81.69l-1.75.12c.31,4.86.7,9.71.91,14.58.39,9.57.76,19.15.91,28.73,0,1.07-1.31,3-2.21,3.1-6.78.92-13.61,1.49-21,2.23-.28-3.05-.64-5.28-.66-7.52-.08-10.73.54-21.51-2.11-32.06a32.9,32.9,0,0,0-1.42-3.76l-1.05.26c.33,3.48.83,7,1,10.46.34,9.57.54,19.16.77,28.74.11,4.44.44,5.23,4.86,5.24,6.42,0,12.84-.55,19.25-1C183.54,397.68,185,397.57,185.05,399.79Z" transform="translate(-116.44 -314.12)"/><path class="cls-2" d="M502.88,406c-.48-15.72,4-29.84,11.28-43.09,3.26-5.94,8.73-9.18,15.9-9.32,7.75-.15,12.83,4.05,15.88,10.3a47.91,47.91,0,0,1,3.94,14.84c1.77,14.27,1.52,28.58-1.94,42.6a50.4,50.4,0,0,1-5.73,13.21c-5.89,10-20.08,11.47-29,3-8.12-7.78-9.84-17.38-10.36-27.7C502.82,408.44,502.88,407.05,502.88,406Zm45.28-10.95c-.83-8.89-1.15-16.54-2.36-24-1.51-9.35-8.25-15.62-16-15.14-6.07.37-10.5,3.91-13.28,9.22-8.15,15.54-12.4,31.87-10.23,49.61,1,8.2,3,15.65,9.32,21.59,7.56,7.12,17.78,6.37,23.22-2.56a46,46,0,0,0,6.08-14.18C546.69,411.13,547.25,402.45,548.16,395.07Z" transform="translate(-116.44 -314.12)"/><path class="cls-2" d="M760.78,362.48c5,6,5.68,12.66,6.6,19.06,1.09,7.63,1.51,15.36,2.17,23.06.17,2,1.05,3,3.12,2.53a59.2,59.2,0,0,0,6.87-1.93c6.66-2.54,13.24-5.29,19.9-7.81,2.07-.78,2.08-1.9,1.56-3.73-3.58-12.42-7.07-24.87-10.25-37.61,1.24,2.12,3,4.1,3.66,6.38,5.46,17.49,10.72,35,16.06,52.55,2.52,8.26,5.09,16.5,7.6,24.76a7.13,7.13,0,0,1,0,1.87c-3,.32-3.51-1.89-4.07-3.77-2.73-9.31-5.37-18.64-8.07-28-.77-2.67-1.78-5.27-2.41-8-.56-2.44-1.71-3-3.94-2-6.58,2.77-13.18,5.48-19.79,8.18a20,20,0,0,1-3.59,1.21c-7.93,1.57-9.27.61-10-7.3-1.22-12.63-1.74-25.36-5.4-37.64A10.72,10.72,0,0,1,760.78,362.48Z" transform="translate(-116.44 -314.12)"/></g></svg>