<svg id="katman_1" data-name="katman 1" xmlns="http://www.w3.org/2000/svg" viewBox="0 0 1080 1080"><defs><style>.cls-1{fill:none;stroke:#8500e1;stroke-miterlimit:10;stroke-width:75px;}.cls-2{fill:#8500e1;}.cls-3{fill:#f6f300;}</style></defs><rect width="1080" height="1080"/><path class="cls-1" d="M513.26,744.63"/><polygon class="cls-2" points="894.76 894.75 185.25 894.75 185.25 185.25 894.76 185.25 894.76 335.37 819.76 335.37 819.76 260.25 260.25 260.25 260.25 819.75 819.76 819.75 819.76 744.63 894.76 744.63 894.76 894.75"/><path class="cls-1" d="M857.26,335.37"/><path class="cls-1" d="M857.26,744.63"/><path class="cls-1" d="M857.26,744.63"/><path class="cls-1" d="M513.26,744.63"/><path class="cls-1" d="M857.26,335.37"/><path class="cls-3" d="M390.58,415.26H543c30.49,0,54.75,2.77,72.76,7.28,36.73,10,51.63,29.45,51.63,60.63,0,29.8-19.4,45.05-52.67,52,41.93,7.28,60.3,23.21,60.3,57.17,0,51.63-45.74,72.42-127.17,72.42H390.58Zm108.8,98.41H531.6c16.64,0,20.79-6.24,20.79-12.13.35-5.89-4.5-11.44-20.79-11.44H499.38Zm0,73.8h30.49c21.83,0,26.34-5.54,26.34-12.82s-5.55-11.78-26.34-11.78H499.38Z"/><path class="cls-3" d="M801.87,599.6v65.14H693.76V415.26H801.87v76.92l68.61-76.92H999.72L907.9,513.32l90.44,151.42h-123L824.05,575Z"/></svg>